<svg xmlns="http://www.w3.org/2000/svg" width="1024" height="1024"><path d="M704 512c0 106-86 192-192 192-107.8 0-192-86-192-192 0-107.8 84.2-192 192-192 106 0 192 84.2 192 192zm-192-96c-53 0-96 43-96 96s43 96 96 96 96-43 96-96-43-96-96-96zm0-416c26.6 0 48 21.5 48 48v82.98C733.6 152.64 871.4 290.4 893 464h83c26.6 0 48 21.4 48 48s-21.4 48-48 48h-83c-21.6 173.6-159.4 311.4-333 333v83c0 26.6-21.4 48-48 48s-48-21.4-48-48v-83c-173.6-21.6-311.36-159.4-333.02-333H48c-26.5 0-48-21.4-48-48s21.5-48 48-48h82.98C152.64 290.4 290.4 152.64 464 130.98V48c0-26.5 21.4-48 48-48ZM224 512c0 159 129 288 288 288s288-129 288-288-129-288-288-288-288 129-288 288Z"/></svg>