<svg xmlns="http://www.w3.org/2000/svg" xml:space="preserve" width="512" height="512" viewBox="0 0 511.991 511.991"><path fill="#fafafa" d="M486.343 242.312c0 128.157-103.892 232.05-232.049 232.05-29.127 0-57-5.367-82.685-15.165-12.501-4.768-47.508 32.515-74.741 44.334-13.324 5.783-25.655-5.805-30.898-9.55-16.306-11.648 22.554-88.069 9.77-103.453-33.407-40.2-53.495-91.862-53.495-148.216 0-128.157 103.892-232.05 232.049-232.05s232.05 103.893 232.05 232.05Z" paint-order="markers stroke fill"/><path fill="#14a241" d="M255.998 311.248c-13.527 0-24.494-10.966-24.494-24.494v-10.39c0-24.177 15.224-45.803 37.884-53.815 17.045-6.027 28.028-22.883 26.707-40.99-1.446-19.828-17.499-35.759-37.341-37.059-20.988-1.387-39.687 13.771-42.577 34.48a40.998 40.998 0 0 0-.389 5.639c0 13.527-10.966 24.494-24.494 24.494S166.8 198.147 166.8 184.619c0-4.147.289-8.322.86-12.409 6.418-45.992 47.837-79.643 94.295-76.594 44.104 2.888 79.786 38.304 83 82.381 2.92 40.06-21.439 77.373-59.236 90.738-3.126 1.105-5.226 4.171-5.226 7.628v10.39c-.001 13.528-10.968 24.495-24.495 24.495zm0 72.881c-13.527 0-24.494-10.966-24.494-24.494v-.203c0-13.527 10.966-24.494 24.494-24.494s24.494 10.966 24.494 24.494v.203c0 13.528-10.967 24.494-24.494 24.494z" data-original="#0573ce"/><path fill="#14a241" d="M189.312 172.214a89.305 89.305 0 0 0-.856 12.406c0 9.641 5.567 17.985 13.666 21.973a24.346 24.346 0 0 1-10.828 2.52c-13.519 0-24.493-10.962-24.493-24.493 0-4.147.294-8.319.869-12.406 6.411-46.002 47.837-79.646 94.291-76.6 1.664.11 3.316.269 4.955.477-39.335 4.845-71.964 35.725-77.604 76.123zm101.729 50.333c-22.658 8.014-37.89 29.644-37.89 53.819v10.387c0 9.641 5.579 17.985 13.678 21.973a24.346 24.346 0 0 1-10.828 2.52c-13.531 0-24.493-10.962-24.493-24.493v-10.387c0-24.175 15.22-45.806 37.89-53.819 17.043-6.032 28.017-22.878 26.696-40.985-1.236-17.03-13.25-31.186-29.191-35.651a40.023 40.023 0 0 1 13.507-1.407c19.844 1.297 35.896 17.226 37.34 37.058 1.32 18.106-9.666 34.953-26.709 40.985zm-24.212 159.06a24.346 24.346 0 0 1-10.828 2.52c-13.531 0-24.493-10.962-24.493-24.493v-.208c0-13.519 10.962-24.493 24.493-24.493 3.891 0 7.561.905 10.828 2.52-8.099 4.001-13.678 12.345-13.678 21.973v.208c0 9.641 5.579 17.984 13.678 21.973z" data-original="#0067c5"/><path d="M86.505 511.991c-5.209 0-10.421-1.445-15.092-4.339-9.494-5.882-14.621-16.433-13.38-27.534l9.538-85.326a242.718 242.718 0 0 1-26.947-41.208 7.5 7.5 0 0 1 13.325-6.887 227.793 227.793 0 0 0 27.194 40.988 7.501 7.501 0 0 1 1.687 5.629l-9.89 88.47c-.6 5.369 1.782 10.272 6.373 13.117 4.593 2.846 10.046 2.796 14.589-.133l65.967-42.579a7.498 7.498 0 0 1 7.009-.597c27.285 11.635 56.275 17.731 86.166 18.12 58.9.759 115.484-21.906 159.326-63.792 43.854-41.898 69.023-97.38 70.871-156.224 1.972-62.746-21.116-121.92-65.013-166.622-21.292-21.683-46.222-38.627-74.099-50.361-28.886-12.159-59.575-18.107-91.223-17.693-59.894.8-116.426 25.438-159.183 69.376-42.75 43.931-65.858 101.118-65.067 161.025.322 24.045 4.386 47.706 12.081 70.324a7.5 7.5 0 0 1-14.201 4.831C18.333 296.464 14 271.245 13.657 245.621c-.426-32.281 5.646-63.875 18.05-93.906 11.95-28.934 29.198-55.103 51.266-77.78 22.07-22.68 47.759-40.632 76.351-53.356C189.008 7.369 220.426.453 252.706.022c33.731-.447 66.44 5.901 97.241 18.866 29.718 12.509 56.292 30.568 78.982 53.676 22.679 23.095 40.241 49.974 52.199 79.891 12.411 31.051 18.166 63.926 17.104 97.712-1.972 62.8-28.786 121.966-75.501 166.599-45.944 43.895-105.099 67.961-166.855 67.964-1.012 0-2.012-.006-3.025-.019-30.513-.396-60.15-6.375-88.16-17.78l-62.657 40.442c-4.773 3.077-10.149 4.618-15.529 4.618z" data-original="#000000"/><path d="M255.996 318.751c-17.64 0-31.99-14.355-31.99-32v-10.39c0-27.349 17.232-51.815 42.881-60.881 13.868-4.905 22.804-18.629 21.729-33.374-1.179-16.115-14.227-29.065-30.351-30.121-17.08-1.13-32.31 11.182-34.661 28.032a33.068 33.068 0 0 0-.318 4.604c0 17.639-14.351 31.99-31.99 31.99-17.645 0-32-14.351-32-31.99 0-4.486.313-9.01.932-13.446 6.962-49.87 51.875-86.339 102.219-83.038 16.353 1.073 32.28 6.38 46.06 15.348a7.5 7.5 0 0 1-8.182 12.572c-11.63-7.569-25.067-12.047-38.86-12.952-42.564-2.793-80.5 28.017-86.381 70.143a82.65 82.65 0 0 0-.788 11.373c0 9.368 7.626 16.99 17 16.99 9.369 0 16.99-7.622 16.99-16.99 0-2.25.156-4.5.463-6.685 3.431-24.59 25.606-42.565 50.502-40.919 23.545 1.543 42.604 20.458 44.325 43.997 1.564 21.468-11.466 41.456-31.689 48.608-19.668 6.952-32.881 25.735-32.881 46.739v10.39c0 9.374 7.622 17 16.99 17 9.374 0 17-7.626 17-17v-10.39c0-6.618 4.102-12.524 10.206-14.696 34.637-12.242 56.949-46.419 54.274-83.119-1.047-14.376-5.96-28.272-14.207-40.187a7.5 7.5 0 0 1 12.334-8.537c9.771 14.115 15.591 30.587 16.833 47.634 3.165 43.422-23.243 83.863-64.221 98.346-.033.012-.219.204-.219.559v10.39c0 17.645-14.355 32-32 32zm.001 72.878c-17.641 0-31.994-14.352-31.994-31.994v-.203c0-17.642 14.353-31.994 31.994-31.994 17.642 0 31.994 14.353 31.994 31.994v.203c.001 17.642-14.352 31.994-31.994 31.994zm0-49.191c-9.37 0-16.994 7.624-16.994 16.994v.203c0 9.37 7.624 16.994 16.994 16.994 9.371 0 16.994-7.624 16.994-16.994v-.203c.001-9.37-7.623-16.994-16.994-16.994z" data-original="#000000"/></svg>