<svg xmlns="http://www.w3.org/2000/svg" width="1024" height="1024"><path d="M1008.882 1008.993c-20.007 20.01-52.377 20.01-72.406 0L511.992 584.366 87.41 1008.993c-20.007 20.01-52.377 20.01-72.406 0-20.007-20.009-20.007-52.382 0-72.414l424.677-424.531L15.069 87.421c-20.007-20.01-20.007-52.383 0-72.414 20.007-20.01 52.377-20.01 72.406 0L511.992 439.73l424.58-424.627c20.007-20.01 52.377-20.01 72.406 0 20.007 20.009 20.007 52.382 0 72.414L584.302 512.048l424.58 424.627c20.157 19.84 20.157 52.479 0 72.318z"/></svg>